<svg width="20" height="20" viewBox="0 0 20 20" fill="none" xmlns="http://www.w3.org/2000/svg">
<g clip-path="url(#clip0_2_3)">
<path d="M17.426 8.97374C17.4284 8.98105 17.4307 8.98591 17.4331 8.99322C17.4307 8.98835 17.4284 8.98105 17.426 8.97374ZM17.7098 9.98394C17.7122 9.99368 17.7146 10.0058 17.717 10.0156C17.7146 10.0058 17.7122 9.99611 17.7098 9.98394ZM17.6335 9.64072C17.6359 9.64802 17.6383 9.65776 17.6407 9.66506C17.6383 9.65776 17.6359 9.65045 17.6335 9.64072ZM17.4832 9.1271C17.4856 9.13684 17.4904 9.14657 17.4928 9.15631C17.4904 9.14901 17.4856 9.13927 17.4832 9.1271ZM11.9851 13.8787C11.9851 13.8762 11.9827 13.8762 11.9827 13.8738C11.9827 13.8762 11.9827 13.8787 11.9851 13.8787ZM12.8366 13.5987C12.8295 13.6036 12.8247 13.6109 12.8175 13.6158C12.8223 13.6085 12.8295 13.6036 12.8366 13.5987ZM17.5906 9.47276C17.5929 9.48249 17.5953 9.4898 17.5977 9.49953C17.5953 9.49223 17.5929 9.48249 17.5906 9.47276ZM12.6768 13.7667C12.6577 13.791 12.6387 13.8203 12.6196 13.847C12.6387 13.8178 12.6577 13.791 12.6768 13.7667ZM16.9728 8.04388C16.9752 8.04874 16.9799 8.05361 16.9823 8.05848C16.9799 8.05605 16.9775 8.05118 16.9728 8.04388ZM12.7412 13.6888C12.7341 13.6985 12.7245 13.7059 12.7174 13.7156C12.7245 13.7083 12.7341 13.6985 12.7412 13.6888ZM11.9254 13.7375C11.9231 13.7326 11.9231 13.7302 11.9207 13.7253C11.9231 13.7302 11.9254 13.7326 11.9254 13.7375ZM12.4335 14.2268C12.4287 14.2365 12.4264 14.2462 12.4216 14.2584C12.4264 14.2487 12.4287 14.2389 12.4335 14.2268ZM17.1374 8.33355C17.1421 8.34328 17.1493 8.35545 17.1541 8.36519C17.1493 8.35302 17.1421 8.34328 17.1374 8.33355ZM12.7054 13.7326C12.6959 13.7424 12.6887 13.7545 12.6792 13.7643C12.6887 13.7521 12.6959 13.7424 12.7054 13.7326ZM14.4873 14.7185C14.4849 14.716 14.4825 14.7136 14.4825 14.7112C14.4825 14.716 14.4849 14.716 14.4873 14.7185ZM12.8796 13.5622C12.8748 13.5671 12.87 13.5695 12.8653 13.5744C12.87 13.572 12.8748 13.5671 12.8796 13.5622ZM12.3667 14.4239C12.3548 14.4142 12.3429 14.402 12.3309 14.3899C12.3429 14.402 12.3548 14.4118 12.3667 14.4239ZM17.9794 11.5297L17.8506 11.4372L18.0462 11.5759L17.9794 11.5297ZM11.873 13.5793C11.8706 13.572 11.8682 13.5671 11.8682 13.5598C11.8706 13.5647 11.873 13.572 11.873 13.5793ZM12.5098 14.0466C12.5361 13.9931 12.5623 13.9444 12.5886 13.8957C12.548 13.9663 12.5075 14.0418 12.4717 14.127C12.4836 14.1002 12.4979 14.0734 12.5098 14.0466ZM16.5816 7.49374C16.5911 7.50591 16.5983 7.51565 16.6078 7.52782C16.6007 7.51565 16.5911 7.50348 16.5816 7.49374ZM11.8992 13.6596C11.8968 13.6547 11.8944 13.6499 11.8944 13.6426C11.8968 13.6499 11.8968 13.6547 11.8992 13.6596ZM17.8339 10.9795C17.8339 10.9966 17.8363 11.0112 17.8363 11.0282C17.8363 11.0136 17.8339 10.9966 17.8339 10.9795ZM12.3977 14.3241C12.3953 14.329 12.393 14.3363 12.393 14.3412C12.3953 14.3363 12.3977 14.329 12.3977 14.3241ZM17.7647 10.3053C17.7671 10.315 17.7671 10.3223 17.7695 10.332C17.7671 10.3247 17.7671 10.315 17.7647 10.3053ZM17.8219 10.8116C17.8243 10.8286 17.8243 10.8481 17.8267 10.8651C17.8243 10.8481 17.8219 10.831 17.8219 10.8116ZM16.7915 7.76881C16.7963 7.77611 16.801 7.78341 16.8082 7.79072C16.8034 7.78585 16.7986 7.77611 16.7915 7.76881ZM17.8076 10.6509C17.81 10.6655 17.81 10.6801 17.8124 10.6972C17.81 10.6826 17.81 10.6655 17.8076 10.6509Z" fill="white"/>
<path d="M17.4212 13.3164L17.7647 13.4722C18.0605 13.6061 18.2775 13.9176 18.4302 14.424C18.621 14.2511 18.8333 13.959 18.9526 13.4697C19.2078 12.4328 18.0557 11.5857 18.0438 11.5759L17.8482 11.4372L17.841 11.1938C17.8386 11.1378 17.8363 11.0842 17.8339 11.0307C17.8339 11.0136 17.8315 10.9966 17.8315 10.982C17.8291 10.943 17.8267 10.9065 17.8243 10.8676C17.8219 10.8505 17.8219 10.8311 17.8196 10.814C17.8172 10.7751 17.8124 10.7361 17.81 10.6996C17.8076 10.685 17.8076 10.6704 17.8052 10.6534C17.8005 10.5998 17.7933 10.5487 17.7885 10.4976L17.7671 10.3369C17.7647 10.3272 17.7647 10.3199 17.7623 10.3101C17.7552 10.2663 17.7504 10.2225 17.7432 10.1811L17.7361 10.1446L17.7146 10.0205C17.7122 10.0107 17.7098 9.99856 17.7074 9.98882C17.6979 9.9377 17.6884 9.88902 17.6764 9.8379C17.6645 9.78191 17.6502 9.72593 17.6383 9.66994C17.6359 9.66264 17.6335 9.6529 17.6311 9.6456C17.6192 9.59691 17.6073 9.55066 17.593 9.50441C17.5906 9.49468 17.5882 9.48737 17.5858 9.47764C17.5548 9.37053 17.5238 9.26586 17.488 9.16362C17.4856 9.15389 17.4808 9.14415 17.4785 9.13441C17.4618 9.08816 17.4474 9.04435 17.4307 9.00053C17.4284 8.99323 17.426 8.98836 17.4236 8.98106C17.4045 8.92994 17.3854 8.88125 17.364 8.83014C17.3616 8.82283 17.3592 8.81553 17.3544 8.81066C17.3377 8.76928 17.3186 8.72546 17.2996 8.68408C17.2948 8.67435 17.29 8.66217 17.2852 8.65244C17.2638 8.60619 17.2423 8.5575 17.2208 8.51125C17.197 8.465 17.1731 8.41632 17.1493 8.37007C17.1445 8.36033 17.1374 8.34816 17.1326 8.33842C17.1135 8.30191 17.092 8.2654 17.073 8.22889C17.0682 8.21915 17.061 8.20941 17.0563 8.19968C17.03 8.15586 17.0062 8.11204 16.9775 8.06823C16.9752 8.06336 16.9704 8.05849 16.968 8.05362C16.9441 8.01468 16.9203 7.97816 16.8964 7.93921C16.8893 7.92704 16.8821 7.91487 16.8726 7.90514C16.8487 7.87106 16.8249 7.83454 16.801 7.80046C16.7963 7.79316 16.7915 7.78586 16.7843 7.77856C16.7557 7.73717 16.7271 7.69823 16.6961 7.65685L16.6746 7.62764C16.6508 7.59599 16.6269 7.56435 16.603 7.53514C16.5935 7.52296 16.5863 7.51323 16.5768 7.50106C16.5458 7.46211 16.5124 7.42316 16.4814 7.38421C16.0568 6.89007 15.6322 6.59553 15.3937 6.45435C15.1575 6.59553 14.733 6.89007 14.306 7.38421C13.4568 8.3725 12.9988 9.65533 12.9487 11.2011L12.9416 11.4445L12.746 11.5832C12.7365 11.5905 11.582 12.4376 11.8396 13.4746C11.8467 13.5063 11.8563 13.5355 11.8634 13.5647C11.8658 13.572 11.8682 13.5768 11.8682 13.5842C11.8754 13.6061 11.8801 13.628 11.8873 13.6499C11.8897 13.6547 11.892 13.6596 11.892 13.6669L11.9135 13.7326C11.9159 13.7375 11.9159 13.7399 11.9183 13.7448C11.9254 13.7667 11.935 13.7886 11.9421 13.8105C11.9421 13.813 11.9445 13.8154 11.9445 13.8178L11.9732 13.8836C11.9732 13.886 11.9755 13.886 11.9755 13.8884C11.9851 13.9103 11.9946 13.9322 12.0065 13.9541C12.028 13.998 12.0519 14.0393 12.0733 14.0783C12.1425 14.1927 12.2141 14.2852 12.2856 14.3607L12.2904 14.3655L12.3214 14.3972C12.3333 14.4093 12.3453 14.4191 12.3572 14.4313C12.3667 14.4045 12.3739 14.3753 12.3834 14.3485C12.3858 14.3436 12.3882 14.3363 12.3882 14.3315C12.3954 14.3095 12.4025 14.2876 12.412 14.2657C12.4168 14.256 12.4192 14.2438 12.424 14.2341C12.4311 14.217 12.4359 14.2 12.4431 14.183C12.4478 14.1684 12.455 14.1538 12.4621 14.1392C12.4621 14.1367 12.4645 14.1367 12.4645 14.1343C12.5003 14.0491 12.5409 13.9712 12.5814 13.903L12.5838 13.9006L12.6124 13.8568L12.6148 13.8543C12.6339 13.8251 12.653 13.7984 12.672 13.774L12.6744 13.7716C12.6816 13.7618 12.6911 13.7497 12.7007 13.7399C12.7054 13.7351 12.7102 13.7302 12.7126 13.7253C12.7198 13.7156 12.7293 13.7059 12.7365 13.6986L12.7555 13.6791C12.7675 13.6669 12.777 13.6547 12.7889 13.645C12.7961 13.6377 12.8032 13.6304 12.8128 13.6231C12.8199 13.6182 12.8247 13.6109 12.8319 13.6061L12.8605 13.5842C12.8653 13.5793 12.87 13.5768 12.8748 13.572L12.9177 13.5428C12.9225 13.5403 12.9273 13.5379 12.932 13.533L12.9678 13.5111L12.9821 13.5038C12.9988 13.4941 13.0131 13.4868 13.0298 13.4795L13.3733 13.3237L13.6023 13.628C13.6476 13.6864 13.693 13.7472 13.7407 13.8081C13.9673 14.1026 14.2106 14.4093 14.3871 14.6163C14.4109 14.643 14.4324 14.6674 14.4515 14.6917C14.461 14.7015 14.4682 14.7112 14.4777 14.7209C14.4801 14.7234 14.4825 14.7258 14.4825 14.7282C14.492 14.738 14.4992 14.7477 14.5064 14.755H16.2858C16.4838 14.5408 16.875 14.0491 17.1922 13.628L17.4212 13.3164ZM15.3436 11.184C14.5994 11.184 13.9959 10.5657 13.9959 9.80869C13.9959 9.04921 14.6018 8.43336 15.3436 8.43336C16.0854 8.43336 16.6913 9.05165 16.6913 9.80869C16.6913 10.5657 16.0878 11.184 15.3436 11.184Z" fill="#FFF957"/>
<path d="M13.6333 6.69048C14.4086 5.80686 15.179 5.46363 15.21 5.44903L15.3985 5.36626L15.5869 5.44903C15.6203 5.46363 16.3908 5.80686 17.1636 6.69048C17.426 6.98988 17.7098 7.37449 17.9651 7.85646C17.9126 4.53863 15.2482 1.8537 11.9827 1.8537C9.57829 1.8537 7.42674 3.31422 6.48693 5.53666C6.68968 5.60969 6.88527 5.69732 7.0761 5.79712C7.72968 6.14278 8.30454 6.64423 8.74105 7.25034C8.89609 7.46699 8.85077 7.77127 8.63848 7.93192C8.42619 8.09015 8.12802 8.0439 7.97059 7.82725C7.24784 6.82436 6.08858 6.22554 4.87207 6.22554C2.75152 6.22554 1.02933 7.98548 1.02933 10.1471C1.02933 12.3111 2.75391 14.0686 4.87207 14.0686H11.0286C10.988 13.9542 10.9498 13.8349 10.9188 13.7034C10.5825 12.3427 11.5748 11.3082 12.0113 10.9309C12.133 8.82285 12.9535 7.46456 13.6333 6.69048ZM10.0315 4.03232C9.24435 4.49238 8.85316 5.11798 8.84839 5.12528C8.80307 5.1983 8.72435 5.23969 8.64564 5.23969C8.6027 5.23969 8.55738 5.22752 8.51921 5.20317C8.4071 5.13258 8.37371 4.98166 8.44527 4.86725C8.46435 4.83804 8.90564 4.13212 9.79536 3.6112C10.6159 3.13166 11.9851 2.72515 13.8504 3.5114C13.972 3.56252 14.0293 3.70613 13.9792 3.83028C13.9291 3.95442 13.7884 4.01284 13.6667 3.96173C12.3143 3.38969 11.0906 3.41403 10.0315 4.03232Z" fill="white"/>
<path d="M13.2207 14.9327C13.2755 14.923 13.3304 14.9132 13.3829 14.9011C13.3423 14.8524 13.3042 14.8037 13.266 14.755C13.2493 14.811 13.2326 14.8718 13.2207 14.9327Z" fill="#005BFF"/>
<path d="M17.5333 14.755C17.5739 14.8962 17.6073 15.0569 17.6287 15.2053L17.6931 15.7068L18.1821 15.6216C18.2346 15.6119 19.4678 15.3806 19.8805 13.7059C20.2168 12.3451 19.2245 11.3106 18.788 10.9333C18.7665 10.5633 18.7236 10.2176 18.664 9.89146C18.8357 9.27073 18.924 8.62323 18.924 7.96113C18.924 6.06974 18.2012 4.29033 16.8917 2.95395C15.5798 1.61514 13.8385 0.880005 11.9851 0.880005C9.14418 0.880005 6.60621 2.63994 5.5519 5.30053C5.32768 5.26889 5.10107 5.25185 4.87685 5.25185C2.23154 5.25185 0.0799866 7.44751 0.0799866 10.147C0.0799866 12.8466 2.23154 15.0422 4.87685 15.0422H11.6273C12.0948 15.5194 12.5886 15.6143 12.622 15.6192L13.1086 15.7019L13.173 15.2029C13.1849 15.1128 13.2016 15.0203 13.2231 14.9303C13.2374 14.8694 13.2517 14.8086 13.2684 14.7526C13.3066 14.8013 13.3471 14.8499 13.3853 14.8986C13.6357 15.2102 13.8957 15.512 14.0436 15.624L14.17 15.719H16.6341L16.7605 15.624C16.9275 15.4974 17.2495 15.1104 17.5333 14.755ZM10.9189 13.7059C10.9499 13.8349 10.988 13.9566 11.0286 14.071H4.87208C2.75154 14.071 1.02934 12.3111 1.02934 10.1495C1.02934 7.98547 2.75392 6.22797 4.87208 6.22797C6.09098 6.22797 7.24786 6.82678 7.97061 7.82968C8.12565 8.04632 8.4262 8.09257 8.63849 7.93435C8.85079 7.77612 8.89611 7.46941 8.74106 7.25277C8.30455 6.64665 7.72969 6.1452 7.07611 5.79955C6.88529 5.69974 6.68969 5.61211 6.48694 5.53909C7.42675 3.31422 9.57831 1.85369 11.9827 1.85369C15.2482 1.85369 17.9126 4.53862 17.9675 7.85889C17.7122 7.37691 17.4284 6.98987 17.166 6.6929C16.3908 5.80928 15.6203 5.46606 15.5893 5.45145L15.4009 5.36869L15.2124 5.45145C15.179 5.46606 14.4086 5.80928 13.6357 6.6929C12.9559 7.46698 12.1354 8.82527 12.0137 10.9357C11.5748 11.3106 10.5825 12.3451 10.9189 13.7059ZM16.2858 14.7477H14.5111C14.504 14.738 14.4944 14.7307 14.4873 14.7209C14.4849 14.7185 14.4825 14.7161 14.4825 14.7136C14.473 14.7039 14.4658 14.6942 14.4563 14.6844C14.2464 14.4459 13.8957 14.0053 13.6071 13.6207L13.3781 13.3164L13.0346 13.4722C13.0179 13.4795 13.0012 13.4868 12.9869 13.4965L12.9726 13.5038L12.9368 13.5257C12.9321 13.5282 12.9273 13.5306 12.9225 13.5355L12.8796 13.5647C12.8748 13.5695 12.87 13.572 12.8653 13.5769L12.8366 13.5988C12.8295 13.6036 12.8247 13.6109 12.8176 13.6158C12.8104 13.6231 12.8033 13.6304 12.7937 13.6377C12.7818 13.6499 12.7699 13.6596 12.7603 13.6718L12.7412 13.6913C12.7341 13.701 12.7245 13.7083 12.7174 13.718C12.7126 13.7229 12.7078 13.7278 12.7055 13.7326C12.6959 13.7424 12.6888 13.7545 12.6792 13.7643L12.6768 13.7667L12.6196 13.847L12.6172 13.8495L12.5886 13.8933L12.5862 13.8957C12.5576 13.942 12.5313 13.9931 12.5075 14.0467C12.4955 14.0734 12.4836 14.1002 12.4693 14.1294C12.4693 14.1319 12.4669 14.1319 12.4669 14.1343C12.4598 14.1489 12.455 14.1635 12.4478 14.1781C12.4407 14.1951 12.4335 14.2122 12.4288 14.2292C12.424 14.239 12.4216 14.2487 12.4168 14.2609C12.4097 14.2828 12.4001 14.3047 12.393 14.3266C12.3906 14.3315 12.3882 14.3388 12.3882 14.3436C12.3787 14.3704 12.3715 14.3972 12.362 14.4264C12.35 14.4167 12.3381 14.4045 12.3262 14.3923L12.2952 14.3607L12.2904 14.3558C12.195 14.256 12.0948 14.1221 12.0089 13.9469C11.9994 13.9249 11.9875 13.903 11.9779 13.8811C11.9779 13.8787 11.9755 13.8787 11.9755 13.8763L11.9469 13.8105C11.9469 13.8081 11.9445 13.8057 11.9445 13.8032C11.935 13.7813 11.9278 13.7594 11.9207 13.7375C11.9183 13.7326 11.9183 13.7302 11.9159 13.7253L11.8944 13.6596C11.8921 13.6547 11.8897 13.6499 11.8897 13.6426C11.8825 13.6207 11.8754 13.5988 11.8706 13.5769C11.8682 13.5695 11.8658 13.5647 11.8658 13.5574C11.8587 13.5282 11.8491 13.499 11.842 13.4673C11.5867 12.4303 12.7388 11.5832 12.7484 11.5759L12.944 11.4372L12.9511 11.1938C13.0012 9.64803 13.4568 8.3652 14.3084 7.37691C14.7354 6.88277 15.1599 6.58823 15.3961 6.44705C15.6322 6.58823 16.0568 6.88277 16.4838 7.37691C16.5172 7.41586 16.5482 7.45481 16.5792 7.49376C16.5887 7.50593 16.5959 7.51566 16.6054 7.52784C16.6293 7.55948 16.6532 7.58869 16.677 7.62034L16.6985 7.64955C16.7295 7.68849 16.7581 7.72988 16.7867 7.77126C16.7915 7.77856 16.7963 7.78586 16.8034 7.79316C16.8273 7.82724 16.8511 7.86132 16.875 7.89784C16.8821 7.91001 16.8893 7.92218 16.8988 7.93192C16.9227 7.96843 16.9465 8.00738 16.9704 8.04632C16.9728 8.05119 16.9776 8.05606 16.9799 8.06093L17.0587 8.19238C17.0634 8.20211 17.0706 8.21185 17.0754 8.22159C17.0968 8.2581 17.1159 8.29461 17.135 8.33113C17.1398 8.34086 17.1469 8.35303 17.1517 8.36277C17.1755 8.40902 17.1994 8.45527 17.2232 8.50395C17.2447 8.5502 17.2686 8.59645 17.2876 8.64514C17.2924 8.65488 17.2972 8.66705 17.302 8.67678C17.321 8.71816 17.3377 8.75955 17.3568 8.80336C17.3592 8.81067 17.3616 8.81797 17.3664 8.82284C17.3878 8.87152 17.4069 8.92264 17.426 8.97376C17.4284 8.98106 17.4308 8.98593 17.4331 8.99323C17.4498 9.03705 17.4665 9.0833 17.4809 9.12711C17.4832 9.13685 17.488 9.14659 17.4904 9.15632C17.5262 9.25856 17.5572 9.36567 17.5882 9.47034C17.5906 9.48007 17.593 9.48738 17.5953 9.49711C17.6073 9.54336 17.6216 9.59205 17.6335 9.6383C17.6359 9.6456 17.6383 9.65534 17.6407 9.66264C17.6669 9.76731 17.6908 9.87442 17.7098 9.98152C17.7122 9.99126 17.7146 10.0034 17.717 10.0132L17.7385 10.1373L17.7456 10.1738C17.7528 10.2176 17.7599 10.259 17.7647 10.3028C17.7671 10.3126 17.7671 10.3199 17.7695 10.3296L17.7909 10.4903C17.7981 10.5414 17.8029 10.5949 17.8076 10.6461C17.81 10.6607 17.81 10.6753 17.8124 10.6923C17.8148 10.7313 17.8196 10.7678 17.822 10.8067C17.8243 10.8238 17.8243 10.8432 17.8267 10.8603C17.8291 10.8992 17.8315 10.9357 17.8339 10.9747C17.8339 10.9917 17.8363 11.0063 17.8363 11.0234C17.8387 11.0769 17.841 11.1329 17.8434 11.1865L17.8506 11.4299L17.9818 11.5224L18.0462 11.5686C18.0581 11.5759 19.2102 12.423 18.955 13.4624C18.8333 13.9517 18.6234 14.2438 18.4326 14.4167C18.2799 13.9103 18.0605 13.5988 17.7671 13.4649L17.4236 13.3091L17.1946 13.6134C16.8774 14.0418 16.4838 14.5335 16.2858 14.7477Z" fill="#005BFF"/>
<path d="M12.4216 14.2584C12.4144 14.2803 12.4049 14.3023 12.3977 14.3242C12.4073 14.3023 12.4144 14.2803 12.4216 14.2584ZM12.4526 14.1781C12.4454 14.1952 12.4383 14.2122 12.4335 14.2292C12.4407 14.2098 12.4454 14.1927 12.4526 14.1781ZM14.4801 14.7136C14.4706 14.7039 14.4634 14.6942 14.4539 14.6844C14.4634 14.6942 14.473 14.7039 14.4801 14.7136ZM12.8629 13.5744L12.8342 13.5963C12.8462 13.589 12.8557 13.5817 12.8629 13.5744ZM12.8176 13.6134C12.8104 13.6207 12.8032 13.628 12.7937 13.6353C12.8009 13.628 12.8104 13.6207 12.8176 13.6134ZM13.0322 13.4722C13.0155 13.4795 12.9988 13.4868 12.9845 13.4965C13.0012 13.4868 13.0179 13.4795 13.0322 13.4722ZM14.5111 14.7477C14.504 14.738 14.4944 14.7307 14.4873 14.7209C14.4944 14.7282 14.504 14.738 14.5111 14.7477ZM12.4717 14.1294C12.4717 14.1319 12.4693 14.1319 12.4693 14.1343C12.4717 14.1319 12.4717 14.1319 12.4717 14.1294ZM12.622 13.8471L12.6196 13.8495C12.6196 13.8495 12.6196 13.8471 12.622 13.8471ZM12.5909 13.8933L12.5886 13.8957C12.5909 13.8957 12.5909 13.8957 12.5909 13.8933ZM12.7174 13.7156C12.7126 13.7205 12.7078 13.7253 12.7054 13.7302C12.7102 13.7278 12.7126 13.7205 12.7174 13.7156ZM17.3043 8.6768C17.3234 8.71818 17.3401 8.75956 17.3592 8.80337C17.3425 8.76199 17.3234 8.71818 17.3043 8.6768ZM17.2256 8.50397C17.2471 8.55022 17.2709 8.59647 17.29 8.64515C17.2685 8.5989 17.2471 8.55022 17.2256 8.50397ZM17.5977 9.49956C17.6096 9.54581 17.624 9.59449 17.6359 9.64074C17.6216 9.59449 17.6096 9.54824 17.5977 9.49956ZM17.7456 10.1763C17.7528 10.2201 17.7599 10.2615 17.7647 10.3053C17.7599 10.2639 17.7528 10.2201 17.7456 10.1763ZM17.4928 9.15877C17.5285 9.26101 17.5596 9.36811 17.5906 9.47278C17.5596 9.36568 17.5285 9.26101 17.4928 9.15877ZM17.3687 8.82285C17.3902 8.87153 17.4093 8.92265 17.4284 8.97377C17.4069 8.92509 17.3878 8.87397 17.3687 8.82285ZM12.0137 13.9444C12.0996 14.1173 12.1974 14.2511 12.2952 14.3534C12.2236 14.2779 12.1497 14.1854 12.0829 14.071C12.059 14.0321 12.0376 13.9907 12.0137 13.9444Z" fill="#005BFF"/>
<path d="M13.7431 13.8008C13.6954 13.74 13.65 13.6791 13.6047 13.6207C13.8933 14.0028 14.244 14.4459 14.4539 14.6844C14.4324 14.6625 14.411 14.6357 14.3895 14.609C14.213 14.4021 13.9697 14.0978 13.7431 13.8008ZM17.7098 9.98396C17.6884 9.87686 17.6645 9.76975 17.6407 9.66508C17.655 9.72107 17.6669 9.77705 17.6788 9.83304C17.6908 9.88416 17.7003 9.93528 17.7098 9.98396ZM17.7909 10.4951C17.7981 10.5463 17.8029 10.5998 17.8076 10.6509C17.8029 10.5998 17.7957 10.5463 17.7909 10.4951ZM17.8267 10.8651C17.8291 10.9041 17.8315 10.9406 17.8339 10.9796C17.8315 10.943 17.8291 10.9041 17.8267 10.8651ZM17.8363 11.0307C17.8387 11.0842 17.841 11.1402 17.8434 11.1938C17.841 11.1378 17.8387 11.0842 17.8363 11.0307ZM11.9207 13.7253L11.8992 13.6596C11.9064 13.684 11.9135 13.7059 11.9207 13.7253ZM11.8682 13.5598C11.8611 13.5306 11.8515 13.5014 11.8444 13.4698C11.8515 13.499 11.8587 13.5306 11.8682 13.5598ZM12.0137 13.9444C12.0042 13.9225 11.9922 13.9006 11.9827 13.8787C11.9946 13.903 12.0042 13.9225 12.0137 13.9444ZM16.6102 7.52541C16.6341 7.55705 16.6579 7.58626 16.6818 7.61791C16.6579 7.5887 16.6341 7.55705 16.6102 7.52541ZM17.0777 8.22403C17.0992 8.26054 17.1183 8.29705 17.1374 8.33357C17.1183 8.29462 17.0992 8.25811 17.0777 8.22403ZM16.7032 7.64712C16.7343 7.68607 16.7629 7.72745 16.7915 7.76883C16.7629 7.72988 16.7343 7.6885 16.7032 7.64712Z" fill="#005BFF"/>
<path d="M15.3436 8.91779C14.8642 8.91779 14.473 9.317 14.473 9.80627C14.473 10.2955 14.8642 10.6948 15.3436 10.6948C15.823 10.6948 16.2142 10.2955 16.2142 9.80627C16.2142 9.317 15.823 8.91779 15.3436 8.91779Z" fill="#FFF957"/>
<path d="M15.3436 8.43094C14.5994 8.43094 13.9959 9.04923 13.9959 9.80627C13.9959 10.5657 14.6018 11.1816 15.3436 11.1816C16.0854 11.1816 16.6913 10.5633 16.6913 9.80627C16.6913 9.04923 16.0878 8.43094 15.3436 8.43094ZM15.3436 10.6972C14.8642 10.6972 14.473 10.298 14.473 9.8087C14.473 9.31943 14.8642 8.92021 15.3436 8.92021C15.8231 8.92021 16.2143 9.31943 16.2143 9.8087C16.2143 10.298 15.8231 10.6972 15.3436 10.6972ZM14.7115 16.1888C14.5803 16.1888 14.473 16.2983 14.473 16.4322V18.8518C14.473 18.9857 14.5803 19.0952 14.7115 19.0952C14.8427 19.0952 14.95 18.9857 14.95 18.8518V16.4322C14.95 16.2983 14.8427 16.1888 14.7115 16.1888Z" fill="#06F3FF"/>
<path d="M16.1809 15.9453C15.9185 15.9453 15.7038 16.1644 15.7038 16.4322V17.1332C15.7038 17.401 15.9185 17.6201 16.1809 17.6201C16.4432 17.6201 16.6579 17.401 16.6579 17.1332V16.4322C16.6579 16.162 16.4432 15.9453 16.1809 15.9453ZM13.9792 3.82784C14.0293 3.70369 13.9721 3.56007 13.8504 3.50896C11.9851 2.72271 10.6159 3.12922 9.79537 3.60876C8.90564 4.12968 8.46436 4.8356 8.44528 4.86481C8.3761 4.97922 8.4095 5.12771 8.51922 5.20073C8.55977 5.22508 8.60271 5.23725 8.64564 5.23725C8.72436 5.23725 8.80307 5.19586 8.8484 5.12284C8.85317 5.11554 9.24436 4.48994 10.0315 4.02988C11.0882 3.41159 12.3119 3.38725 13.6667 3.95685C13.7884 4.01284 13.9291 3.95198 13.9792 3.82784Z" fill="#005BFF"/>
</g>
<defs>
<clipPath id="clip0_2_3">
<rect width="20" height="20" fill="white"/>
</clipPath>
</defs>
</svg>
